<svg width="20" height="20" viewBox="0 0 20 20" fill="none" xmlns="http://www.w3.org/2000/svg">
<path d="M7.50002 11.4583C5.55002 11.4583 1.66669 12.4333 1.66669 14.375V15.8333H13.3334V14.375C13.3334 12.4333 9.45002 11.4583 7.50002 11.4583ZM3.61669 14.1667C4.31669 13.6833 6.00835 13.125 7.50002 13.125C8.99169 13.125 10.6834 13.6833 11.3834 14.1667H3.61669ZM7.50002 9.99999C9.10835 9.99999 10.4167 8.69166 10.4167 7.08332C10.4167 5.47499 9.10835 4.16666 7.50002 4.16666C5.89169 4.16666 4.58335 5.47499 4.58335 7.08332C4.58335 8.69166 5.89169 9.99999 7.50002 9.99999ZM7.50002 5.83332C8.19169 5.83332 8.75002 6.39166 8.75002 7.08332C8.75002 7.77499 8.19169 8.33332 7.50002 8.33332C6.80835 8.33332 6.25002 7.77499 6.25002 7.08332C6.25002 6.39166 6.80835 5.83332 7.50002 5.83332ZM13.3667 11.5083C14.3334 12.2083 15 13.1417 15 14.375V15.8333H18.3334V14.375C18.3334 12.6917 15.4167 11.7333 13.3667 11.5083ZM12.5 9.99999C14.1084 9.99999 15.4167 8.69166 15.4167 7.08332C15.4167 5.47499 14.1084 4.16666 12.5 4.16666C12.05 4.16666 11.6334 4.27499 11.25 4.45832C11.775 5.19999 12.0834 6.10832 12.0834 7.08332C12.0834 8.05832 11.775 8.96666 11.25 9.70832C11.6334 9.89166 12.05 9.99999 12.5 9.99999Z" fill="#FBFBFB"/>
</svg>
