<svg width="18" height="18" viewBox="0 0 18 18" fill="none" xmlns="http://www.w3.org/2000/svg">
<path fill-rule="evenodd" clip-rule="evenodd" d="M11.7099 11H12.4999L16.7399 15.26C17.1499 15.67 17.1499 16.34 16.7399 16.75C16.3299 17.16 15.6599 17.16 15.2499 16.75L10.9999 12.5V11.71L10.7299 11.43C9.32989 12.63 7.41989 13.25 5.38989 12.91C2.60989 12.44 0.389893 10.12 0.0498932 7.32002C-0.470107 3.09002 3.08989 -0.469985 7.31989 0.0500152C10.1199 0.390015 12.4399 2.61002 12.9099 5.39002C13.2499 7.42002 12.6299 9.33002 11.4299 10.73L11.7099 11ZM1.99989 6.50002C1.99989 8.99002 4.00989 11 6.49989 11C8.98989 11 10.9999 8.99002 10.9999 6.50002C10.9999 4.01002 8.98989 2.00002 6.49989 2.00002C4.00989 2.00002 1.99989 4.01002 1.99989 6.50002Z" fill="#1C1E22" fill-opacity="0.5"/>
</svg>
