<svg width="20" height="20" viewBox="0 0 20 20" fill="none" xmlns="http://www.w3.org/2000/svg">
<path fill-rule="evenodd" clip-rule="evenodd" d="M16.25 10C16.25 10.2833 16.225 10.55 16.1917 10.8167L17.95 12.1917C18.1083 12.3167 18.15 12.5417 18.05 12.725L16.3833 15.6083C16.3083 15.7417 16.1667 15.8167 16.025 15.8167C15.975 15.8167 15.925 15.8083 15.875 15.7917L13.8 14.9583C13.3667 15.2833 12.9 15.5667 12.3917 15.775L12.075 17.9833C12.05 18.1833 11.875 18.3333 11.6667 18.3333H8.33332C8.12499 18.3333 7.94999 18.1833 7.92499 17.9833L7.60832 15.775C7.09999 15.5667 6.63332 15.2917 6.19999 14.9583L4.12499 15.7917C4.08332 15.8083 4.03332 15.8167 3.98332 15.8167C3.83332 15.8167 3.69165 15.7417 3.61665 15.6083L1.94999 12.725C1.84999 12.5417 1.89165 12.3167 2.04999 12.1917L3.80832 10.8167C3.77499 10.55 3.74999 10.275 3.74999 10C3.74999 9.725 3.77499 9.45 3.80832 9.18333L2.04999 7.80833C1.89165 7.68333 1.84165 7.45833 1.94999 7.275L3.61665 4.39167C3.69165 4.25833 3.83332 4.18333 3.97499 4.18333C4.02499 4.18333 4.07499 4.19167 4.12499 4.20833L6.19999 5.04167C6.63332 4.71667 7.09999 4.43333 7.60832 4.225L7.92499 2.01667C7.94999 1.81667 8.12499 1.66667 8.33332 1.66667H11.6667C11.875 1.66667 12.05 1.81667 12.075 2.01667L12.3917 4.225C12.9 4.43333 13.3667 4.70833 13.8 5.04167L15.875 4.20833C15.9167 4.19167 15.9667 4.18333 16.0167 4.18333C16.1667 4.18333 16.3083 4.25833 16.3833 4.39167L18.05 7.275C18.15 7.45833 18.1083 7.68333 17.95 7.80833L16.1917 9.18333C16.225 9.45 16.25 9.71667 16.25 10ZM14.5833 10C14.5833 9.825 14.575 9.65 14.5417 9.39167L14.425 8.45L15.1667 7.86667L16.0583 7.15833L15.475 6.15L14.4167 6.575L13.5333 6.93333L12.775 6.35C12.4417 6.1 12.1083 5.90833 11.75 5.75833L10.8667 5.4L10.7333 4.45833L10.575 3.33333H9.41665L9.24999 4.45833L9.11665 5.4L8.23332 5.75833C7.89165 5.9 7.54999 6.1 7.19166 6.36667L6.44166 6.93333L5.57499 6.58333L4.51665 6.15833L3.93332 7.16667L4.83332 7.86667L5.57499 8.45L5.45832 9.39167C5.43332 9.64167 5.41665 9.83333 5.41665 10C5.41665 10.1667 5.43332 10.3583 5.45832 10.6167L5.57499 11.5583L4.83332 12.1417L3.93332 12.8417L4.51665 13.85L5.57499 13.425L6.45832 13.0667L7.21665 13.65C7.54999 13.9 7.88332 14.0917 8.24165 14.2417L9.12499 14.6L9.25832 15.5417L9.41665 16.6667H10.5833L10.75 15.5417L10.8833 14.6L11.7667 14.2417C12.1083 14.1 12.45 13.9 12.8083 13.6333L13.5583 13.0667L14.425 13.4167L15.4833 13.8417L16.0667 12.8333L15.1667 12.1333L14.425 11.55L14.5417 10.6083C14.5667 10.3583 14.5833 10.175 14.5833 10ZM9.99999 6.66667C8.15832 6.66667 6.66666 8.15833 6.66666 10C6.66666 11.8417 8.15832 13.3333 9.99999 13.3333C11.8417 13.3333 13.3333 11.8417 13.3333 10C13.3333 8.15833 11.8417 6.66667 9.99999 6.66667ZM8.33332 10C8.33332 10.9167 9.08332 11.6667 9.99999 11.6667C10.9167 11.6667 11.6667 10.9167 11.6667 10C11.6667 9.08333 10.9167 8.33333 9.99999 8.33333C9.08332 8.33333 8.33332 9.08333 8.33332 10Z" fill="#FBFBFB"/>
</svg>
